<svg width="96" height="96" xmlns="http://www.w3.org/2000/svg" xmlns:xlink="http://www.w3.org/1999/xlink" xml:space="preserve" overflow="hidden"><g transform="translate(-393 -562)"><path d="M426.298 640.991C425.439 641.042 424.586 640.81 423.871 640.331 422.223 639.032 422.388 636.899 422.548 634.837 422.589 634.309 422.632 633.771 422.643 633.236 422.664 632.534 422.211 631.905 421.539 631.701 420.743 631.489 419.924 631.956 419.701 632.749 419.668 632.866 419.649 632.988 419.646 633.11 419.625 635.048 418.037 636.603 416.099 636.582 415.077 636.571 414.11 636.115 413.452 635.333 412.456 634.189 411.644 632.896 411.045 631.502 410.392 630.25 410.048 628.859 410.044 627.446 410.043 626.577 410.207 625.715 410.528 624.907L410.574 624.807C411.515 623.035 413.714 622.361 415.486 623.301 415.662 623.395 415.831 623.502 415.989 623.623 417.287 624.773 419.095 625.213 419.621 624.918L419.702 624.877C420.141 624.678 420.337 624.161 420.139 623.721 420.093 623.62 420.029 623.529 419.95 623.452L419.86 623.352C419.773 623.24 419.665 623.107 419.543 622.957 418.523 621.709 416.623 619.384 417.007 617.237 417.2 616.248 417.831 615.401 418.721 614.931 420.156 614.057 421.924 613.924 423.473 614.575 425.364 615.479 426.701 617.241 427.064 619.305 427.249 620.477 427.914 621.519 428.9 622.18 429.446 622.463 430.09 622.485 430.654 622.241 431.153 622.112 431.579 621.786 431.833 621.337 432.07 620.911 432.126 620.407 431.989 619.939L431.95 619.802C431.458 618.582 430.672 617.502 429.66 616.66 428.694 615.766 427.851 614.749 427.152 613.635 424.995 609.94 427.683 607.815 428.832 606.907 431.191 605.003 434.548 604.967 436.947 606.821 439.191 608.583 441.586 610.144 444.104 611.484 444.176 611.523 444.344 611.607 444.518 611.693 444.794 611.832 445.077 611.98 445.105 611.999 445.326 612.138 445.592 612.184 445.847 612.127 446.106 612.071 446.332 611.913 446.474 611.69 446.495 611.658 446.513 611.625 446.529 611.592 446.738 611.113 446.566 610.554 446.125 610.275 442.907 607.98 439.993 605.288 437.452 602.262 436.396 601.045 436.315 599.262 437.255 597.953 438.59 596.015 441.131 595.326 443.263 596.325 447.34 598.241 448.901 599.428 449.48 599.99L450.344 600.518C450.66 600.707 451.069 600.606 451.262 600.292 451.303 600.226 451.332 600.152 451.347 600.075 451.595 598.85 451.188 597.585 450.271 596.735 448.319 594.94 446.222 593.31 444.001 591.861 442.665 591.011 442.253 589.248 443.075 587.893 444.477 585.685 447.404 585.033 449.611 586.435 449.614 586.437 449.617 586.438 449.619 586.44 449.746 586.522 449.869 586.609 449.988 586.703 452.292 588.51 453.974 590.089 453.987 590.102 454.596 590.664 455.545 590.627 456.107 590.018 456.669 589.41 456.632 588.461 456.023 587.898 455.966 587.844 454.605 586.568 452.649 584.984 451.74 584.287 451.329 583.118 451.604 582.005 451.926 580.962 452.85 580.22 453.939 580.131 456.63 579.688 459.392 580.057 461.872 581.19 467.09 583.597 470.581 588.656 470.98 594.388 471.102 596.674 469.348 598.627 467.061 598.748 466.106 598.799 465.163 598.519 464.392 597.954 463.676 597.429 462.952 596.912 462.236 596.417 461.43 595.829 460.32 595.893 459.588 596.572 458.804 597.352 458.8 598.619 459.58 599.403 459.666 599.49 459.76 599.569 459.861 599.639 461.016 600.434 462.304 601.371 463.692 602.424 466.036 604.202 466.678 607.453 465.185 609.988 464.759 610.746 464.043 611.299 463.201 611.519 462.382 611.734 461.511 611.612 460.782 611.181 460.654 611.107 460.532 611.023 460.416 610.931 459.22 609.984 457.954 609.049 456.657 608.149 455.436 607.372 453.825 607.645 452.929 608.782 452.262 609.817 452.412 611.177 453.287 612.042 454.65 613.457 455.905 614.973 457.041 616.576 458.006 617.917 458.102 619.696 457.286 621.132L457.23 621.22C456.51 622.222 455.485 622.966 454.309 623.34 451.317 624.586 449.478 623.601 447.351 622.462L441.194 619.182C440.863 619.005 440.461 619.026 440.15 619.237 439.624 619.98 439.432 620.911 439.622 621.802 440.548 623.456 442.101 624.086 443.602 624.696 445.15 625.325 446.906 626.037 447.155 628.027 447.472 630.567 443.619 633.292 441.948 634.345 439.862 635.515 437.223 634.784 436.037 632.707 434.491 630.116 434.253 630.108 433.366 630.079L433.358 630.079C432.536 630.09 431.862 630.736 431.817 631.558 431.981 632.159 432.227 632.735 432.547 633.27 433.324 634.773 434.204 636.477 433.487 637.939 432.814 639.313 430.535 640.267 428.627 640.702 427.864 640.882 427.083 640.979 426.298 640.991ZM421.145 629.648C421.466 629.649 421.786 629.693 422.096 629.78 423.639 630.239 424.683 631.676 424.643 633.286 424.63 633.851 424.586 634.427 424.542 634.992 424.391 636.939 424.354 638.165 425.109 638.759 425.383 638.976 426.429 639.152 428.184 638.752 430.151 638.304 431.485 637.481 431.691 637.06 431.966 636.501 431.247 635.109 430.771 634.188 430.233 633.367 429.906 632.426 429.82 631.448 429.928 629.558 431.491 628.081 433.384 628.08L433.404 628.08C435.372 628.144 436.098 628.908 437.762 631.698 438.393 632.822 439.809 633.232 440.942 632.619 443.395 631.069 445.279 629.146 445.171 628.275 445.077 627.524 444.426 627.189 442.849 626.549 441.199 625.879 439.145 625.046 437.875 622.776 437.218 621.602 437.54 618.593 439.028 617.581 439.953 616.954 441.148 616.891 442.134 617.417L448.295 620.699C450.321 621.784 451.436 622.384 453.577 621.478L453.673 621.444C454.433 621.209 455.099 620.738 455.572 620.099 455.976 619.347 455.915 618.431 455.416 617.74 454.339 616.221 453.151 614.785 451.86 613.442 450.302 611.875 450.075 609.422 451.32 607.596 452.855 605.607 455.657 605.125 457.768 606.487 459.128 607.428 460.424 608.387 461.657 609.363 462.173 609.773 462.923 609.687 463.333 609.171 463.367 609.127 463.399 609.081 463.427 609.034 464.441 607.366 464.034 605.203 462.483 604.018 461.119 602.983 459.856 602.064 458.728 601.286 458.511 601.138 458.31 600.968 458.128 600.779 456.588 599.195 456.624 596.663 458.208 595.123 459.632 593.788 461.802 593.646 463.389 594.784 464.104 595.277 464.843 595.805 465.573 596.341 466.53 597.04 467.872 596.831 468.572 595.874 468.861 595.478 469.006 594.995 468.983 594.505 468.629 589.511 465.585 585.105 461.039 583.008 458.912 582.039 456.546 581.726 454.241 582.109 453.947 582.151 453.609 582.256 453.53 582.54 453.475 582.885 453.621 583.23 453.907 583.43 455.92 585.06 457.333 586.386 457.392 586.442 458.806 587.76 458.884 589.975 457.566 591.389 456.248 592.803 454.033 592.88 452.619 591.562 452.613 591.557 452.607 591.551 452.601 591.545 452.579 591.526 450.928 589.984 448.752 588.276 448.683 588.222 448.612 588.172 448.539 588.125 447.272 587.313 445.587 587.682 444.774 588.948 444.53 589.377 444.668 589.922 445.087 590.182 447.403 591.693 449.59 593.393 451.625 595.265 453.054 596.588 453.691 598.56 453.307 600.469 453.246 600.776 453.131 601.07 452.967 601.336 452.196 602.593 450.555 602.989 449.296 602.223L448.113 601.45C447.833 601.169 446.593 600.1 442.41 598.134 441.184 597.554 439.719 597.937 438.934 599.044 438.489 599.611 438.505 600.414 438.973 600.963 441.396 603.852 444.174 606.423 447.241 608.616 448.5 609.444 448.967 611.065 448.343 612.436 448.289 612.551 448.227 612.663 448.158 612.77 447.261 614.162 445.408 614.566 444.013 613.674 444.001 613.671 443.81 613.575 443.623 613.482 443.367 613.354 443.121 613.226 443.094 613.209 440.498 611.826 438.029 610.216 435.716 608.398 434.067 607.121 431.759 607.136 430.126 608.434 428.395 609.801 427.789 610.76 428.878 612.627 429.494 613.591 430.232 614.472 431.074 615.247 432.378 616.346 433.359 617.779 433.913 619.393L433.95 619.529C434.443 621.53 433.268 623.564 431.289 624.136 430.207 624.565 428.991 624.497 427.964 623.948 426.464 623.021 425.428 621.499 425.117 619.763 424.889 618.322 423.986 617.077 422.687 616.413 421.722 616.01 420.622 616.099 419.736 616.654 419.348 616.827 419.066 617.173 418.975 617.588 418.753 618.83 420.332 620.763 421.091 621.692 421.206 621.834 421.311 621.962 421.399 622.073 422.507 623.209 422.484 625.029 421.348 626.138 421.118 626.361 420.853 626.545 420.564 626.681 418.879 627.591 416.096 626.391 414.717 625.165 414.704 625.158 414.628 625.11 414.548 625.067 413.769 624.654 412.803 624.934 412.365 625.699 412.152 626.255 412.043 626.846 412.043 627.442 412.05 628.556 412.326 629.653 412.847 630.638 413.374 631.873 414.09 633.018 414.97 634.032 415.5 634.676 416.451 634.769 417.095 634.239 417.433 633.962 417.634 633.552 417.646 633.115 417.649 632.808 417.693 632.503 417.775 632.208 418.199 630.697 419.575 629.652 421.144 629.648Z"/><path d="M455.577 576C466.309 576.017 474.996 584.731 474.979 595.464 474.974 598.046 474.456 600.602 473.452 602.982 465.185 622.521 449.573 637.837 431.69 643.95 421.547 647.418 410.514 642.006 407.046 631.864 403.579 621.721 408.99 610.688 419.133 607.22 425.173 605.152 433.257 598.362 437.716 587.823 440.751 580.649 447.788 575.991 455.577 576M455.577 574C446.987 573.998 439.229 579.135 435.876 587.043L435.861 587.078C431.654 597.02 424.104 603.405 418.485 605.329 407.289 609.129 401.294 621.286 405.094 632.482 408.894 643.678 421.051 649.674 432.247 645.874 432.277 645.864 432.307 645.853 432.337 645.843 450.75 639.548 466.809 623.816 475.294 603.761 479.894 592.854 474.781 580.284 463.874 575.684 461.248 574.577 458.427 574.004 455.577 574Z"/></g></svg>