<svg width="96" height="96" xmlns="http://www.w3.org/2000/svg" xmlns:xlink="http://www.w3.org/1999/xlink" xml:space="preserve" overflow="hidden"><g transform="translate(-350 -253)"><path d="M421.567 265.733C410.391 260.993 397.488 266.21 392.748 277.386 392.743 277.398 392.738 277.41 392.733 277.422 388.41 287.639 380.651 294.2 374.877 296.177 363.38 300.108 357.247 312.615 361.177 324.112 365.108 335.608 377.615 341.742 389.112 337.811 408.034 331.342 424.536 315.175 433.256 294.566 437.99 283.376 432.757 270.467 421.567 265.733ZM377.113 316.788C378.056 316.362 378.476 315.252 378.05 314.309 377.953 314.095 377.817 313.901 377.649 313.737 376.659 312.466 373.07 308.654 376.229 306.793 378.829 305.264 382.147 306.524 383.091 310.534 383.738 313.285 385.664 315.074 388.012 314.175 389.517 313.74 390.385 312.168 389.951 310.662 389.95 310.66 389.949 310.659 389.949 310.657 389.208 307.957 386.555 306.768 385.016 304.131 383.477 301.494 384.816 299.985 386.452 298.692L386.506 298.65C388.503 297.068 391.321 297.053 393.335 298.612 395.623 300.41 398.066 302.001 400.635 303.367 400.68 303.396 401.508 303.803 401.553 303.833 402.483 304.43 403.72 304.16 404.316 303.23 404.359 303.163 404.398 303.094 404.433 303.022 404.858 302.086 404.528 300.98 403.66 300.43 400.529 298.192 397.692 295.567 395.218 292.619 394.461 291.749 394.399 290.473 395.069 289.534L395.118 289.465C396.184 287.965 398.172 287.444 399.836 288.229 404.851 290.586 405.788 291.724 405.848 291.769L406.818 292.369C407.605 292.85 408.634 292.602 409.115 291.814 409.218 291.646 409.29 291.462 409.328 291.269 409.648 289.703 409.125 288.083 407.949 287 405.957 285.168 403.816 283.503 401.549 282.024 400.669 281.462 400.396 280.302 400.933 279.407 402.044 277.675 404.348 277.172 406.079 278.282 406.18 278.347 406.276 278.415 406.37 278.489 408.584 280.226 410.259 281.789 410.286 281.816 411.293 282.761 412.875 282.711 413.82 281.704 414.765 280.697 414.715 279.115 413.708 278.17 413.602 278.07 412.224 276.782 410.278 275.207 409.11 274.261 409.2 272.386 411.078 272.122 413.581 271.709 416.149 272.049 418.458 273.1 423.341 275.355 426.608 280.091 426.982 285.457 427.065 287.193 425.726 288.667 423.991 288.75 423.272 288.785 422.563 288.572 421.982 288.147 421.26 287.617 420.528 287.094 419.805 286.594 418.613 285.734 416.979 285.838 415.905 286.841 414.717 287.996 414.69 289.895 415.845 291.083 415.982 291.224 416.133 291.352 416.295 291.463 417.552 292.329 418.855 293.286 420.088 294.221 422.028 295.692 422.559 298.383 421.324 300.481L421.289 300.54C420.676 301.584 419.332 301.933 418.289 301.319 418.201 301.268 418.117 301.21 418.037 301.147 416.93 300.271 415.659 299.32 414.227 298.327 412.571 297.258 410.375 297.618 409.146 299.158 408.169 300.594 408.352 302.522 409.581 303.749 410.904 305.125 412.122 306.597 413.226 308.154 413.967 309.177 414.042 310.539 413.417 311.637 412.815 312.478 411.954 313.097 410.966 313.4 408.259 314.543 406.738 313.6 404.511 312.414L398.664 309.3C398.006 308.95 397.209 308.991 396.591 309.408 395.585 310.092 395.307 312.5 395.747 313.287 397.901 317.134 402.803 316.275 403.163 319.152 403.394 321 399.99 323.507 398.415 324.5 396.81 325.362 394.811 324.79 393.904 323.21 392.242 320.424 391.777 320.125 390.398 320.08 389.031 320.072 387.898 321.136 387.819 322.5 387.748 323.86 390.419 326.808 389.59 328.5 388.761 330.192 383.073 331.792 381.49 330.545 379.907 329.298 380.59 326.731 380.643 324.258 380.675 323.105 379.93 322.075 378.826 321.743 377.494 321.37 376.111 322.147 375.738 323.479 375.683 323.677 375.652 323.881 375.646 324.086L375.646 324.144C375.606 325.53 374.451 326.621 373.065 326.581 372.35 326.561 371.678 326.236 371.217 325.689 370.285 324.619 369.525 323.411 368.964 322.107 368.365 320.978 368.049 319.72 368.044 318.442 368.044 317.7 368.185 316.966 368.458 316.276L368.458 316.276C369.139 314.991 370.733 314.502 372.018 315.184 372.146 315.252 372.268 315.33 372.383 315.418 373.7 316.59 376.007 317.414 377.113 316.788Z"/></g></svg>